# xmcd CD database file
#
# Track frame offsets:
#	150
#	16401
#	34517
#	57185
#	74943
#	89839
#	109274
#	125566
#	139607
#	156242
#	180111
#	197618
#	218179
#	233270
#	243736
#	259421
#
# Disc length: 3654 seconds
#
# Revision: 0
# Processed by: cddbd v1.5.2PL0 Copyright (c) Steve Scherf et al.
# Submitted via: CDex 1.51
#
DISCID=e70e4410
DTITLE=Raphael Gualazzi - Reality and Fantasy
DYEAR=2011
DGENRE=Jazz
TTITLE0=Follia d'Amore
TTITLE1=Icarus
TTITLE2=Tuesday
TTITLE3=Reality and Fantasy
TTITLE4=Scandalize Me
TTITLE5=Behind the Sunrise (feat. Rox)
TTITLE6=A Three Second Breath
TTITLE7=Calda Estate (Dove sei)
TTITLE8=Out of My Mind
TTITLE9=Sarò sarai
TTITLE10=Love Goes Down Slow
TTITLE11=Lady "O"
TTITLE12=Empty Home
TTITLE13=Caravan
TTITLE14=Reality and Fantasy (Gilles Peterson Remix)
TTITLE15=Don't Stop
EXTD=YEAR: 2011
EXTT0=
EXTT1=
EXTT2=
EXTT3=
EXTT4=
EXTT5=
EXTT6=
EXTT7=
EXTT8=
EXTT9=
EXTT10=
EXTT11=
EXTT12=
EXTT13=
EXTT14=
EXTT15=
PLAYORDER=
